<svg version="1.1" xmlns="http://www.w3.org/2000/svg" xmlns:xlink="http://www.w3.org/1999/xlink" width="556" height="398" viewBox="0,0,556,398"><g transform="translate(55.5,25.5)"><g data-paper-data="{&quot;isPaintingLayer&quot;:true}" fill="#fb6464" fill-rule="nonzero" stroke="none" stroke-width="0" stroke-linecap="butt" stroke-linejoin="miter" stroke-miterlimit="10" stroke-dasharray="" stroke-dashoffset="0" style="mix-blend-mode: normal"><path d="M-9.5,27.5v-44h510v44z"/><path d="M-55.5,371.5v-397h73v397z"/><path d="M-53.5,372.5v-20h537v20z"/><path d="M323.40995,128.5v-111h59.09005v111z"/><path d="M463.5,356.5v-344h20v344z"/><path d="M7.93839,104.18009v-22.63507h168.81991v22.63507z"/><path d="M84.33175,210.75355v-112.23223h19.80569v112.23223z"/><path d="M271.07109,124.92891v-14.14692h60.36019v14.14692z"/><path d="M242.77725,61.73934v-47.1564h8.48815v47.1564z"/><path d="M306.90995,255.08057v-144.29858h43.38389v144.29858z"/><path d="M135.26066,193.77725v-47.1564h34.89573v47.1564z"/><path d="M195.62085,327.70142v-42.44076h46.21327v42.44076z"/><path d="M440.47928,227.68317v-9.43128h14.14692v9.43128z"/></g></g></svg>