<svg version="1.1" xmlns="http://www.w3.org/2000/svg" xmlns:xlink="http://www.w3.org/1999/xlink" width="556" height="398" viewBox="0,0,556,398"><defs><linearGradient x1="245.5" y1="-16.49999" x2="245.5" y2="27.50001" gradientUnits="userSpaceOnUse" id="color-1"><stop offset="0" stop-color="#000000"/><stop offset="1" stop-color="#5f0000"/></linearGradient><linearGradient x1="-19" y1="-25.49999" x2="-19" y2="371.50001" gradientUnits="userSpaceOnUse" id="color-2"><stop offset="0" stop-color="#000000"/><stop offset="1" stop-color="#5f0000"/></linearGradient><linearGradient x1="215" y1="352.50001" x2="215" y2="372.50001" gradientUnits="userSpaceOnUse" id="color-3"><stop offset="0" stop-color="#000000"/><stop offset="1" stop-color="#5f0000"/></linearGradient><linearGradient x1="373.23223" y1="102.82779" x2="373.23223" y2="130.38627" gradientUnits="userSpaceOnUse" id="color-4"><stop offset="0" stop-color="#545454"/><stop offset="1" stop-color="#ffffff"/></linearGradient><linearGradient x1="294.11759" y1="34.39119" x2="294.11759" y2="44.47651" gradientUnits="userSpaceOnUse" id="color-5"><stop offset="0" stop-color="#545454"/><stop offset="1" stop-color="#ffffff"/></linearGradient><linearGradient x1="326.15174" y1="120.30095" x2="326.15174" y2="130.38626" gradientUnits="userSpaceOnUse" id="color-6"><stop offset="0" stop-color="#545454"/><stop offset="1" stop-color="#ffffff"/></linearGradient><linearGradient x1="112.83345" y1="120.30095" x2="112.83345" y2="130.38627" gradientUnits="userSpaceOnUse" id="color-7"><stop offset="0" stop-color="#545454"/><stop offset="1" stop-color="#ffffff"/></linearGradient><linearGradient x1="163.79686" y1="30.99363" x2="163.79686" y2="41.07895" gradientUnits="userSpaceOnUse" id="color-8"><stop offset="0" stop-color="#545454"/><stop offset="1" stop-color="#ffffff"/></linearGradient><linearGradient x1="35.4176" y1="120.30095" x2="35.4176" y2="130.38627" gradientUnits="userSpaceOnUse" id="color-9"><stop offset="0" stop-color="#000000"/><stop offset="1" stop-color="#5f0000"/></linearGradient><linearGradient x1="473.5" y1="12.50001" x2="473.5" y2="356.50001" gradientUnits="userSpaceOnUse" id="color-10"><stop offset="0" stop-color="#000000"/><stop offset="1" stop-color="#5f0000"/></linearGradient><linearGradient x1="107.90995" y1="187.17536" x2="107.90995" y2="279.6019" gradientUnits="userSpaceOnUse" id="color-11"><stop offset="0" stop-color="#ffffff"/><stop offset="1" stop-color="#5d5d5d"/></linearGradient><linearGradient x1="273.42891" y1="244.70616" x2="273.42891" y2="261.68246" gradientUnits="userSpaceOnUse" id="color-12"><stop offset="0" stop-color="#ffffff"/><stop offset="1" stop-color="#5d5d5d"/></linearGradient><linearGradient x1="230.98815" y1="188.53318" x2="230.98815" y2="190.53318" gradientUnits="userSpaceOnUse" id="color-13"><stop offset="0" stop-color="#ffffff"/><stop offset="1" stop-color="#5d5d5d"/></linearGradient></defs><g transform="translate(55.5,25.49999)"><g data-paper-data="{&quot;isPaintingLayer&quot;:true}" fill-rule="nonzero" stroke-linecap="butt" stroke-linejoin="miter" stroke-miterlimit="10" stroke-dasharray="" stroke-dashoffset="0" style="mix-blend-mode: normal"><path d="M-9.5,27.50001v-44h510v44z" fill="url(#color-1)" stroke="none" stroke-width="0"/><path d="M-55.5,371.50001v-397h73v397z" fill="url(#color-2)" stroke="none" stroke-width="0"/><path d="M-53.5,372.50001v-20h537v20z" fill="url(#color-3)" stroke="none" stroke-width="0"/><path d="M363.96446,130.38627v-27.55849h18.53555v27.55849z" fill="url(#color-4)" stroke="none" stroke-width="0"/><path d="M288.24738,44.47651v-10.08532h11.74042v10.08532z" fill="url(#color-5)" stroke="none" stroke-width="0"/><path d="M320.28153,130.38626v-10.08531h11.74042v10.08531z" fill="url(#color-6)" stroke="none" stroke-width="0"/><path d="M107.69128,130.38627v-10.08532h10.28433v10.08532z" fill="url(#color-7)" stroke="none" stroke-width="0"/><path d="M158.6547,41.07895v-10.08532h10.28433v10.08532z" fill="url(#color-8)" stroke="none" stroke-width="0"/><path d="M10.61812,130.38627v-10.08532h49.59896v10.08532z" fill="url(#color-9)" stroke="none" stroke-width="0"/><path d="M463.5,356.50001v-344h20v344z" fill="url(#color-10)" stroke="none" stroke-width="0"/><path d="M98.47867,279.6019v-92.42654h18.86256v92.42654z" fill="url(#color-11)" stroke="#000000" stroke-width="2"/><path d="M193.7346,261.68246v-16.9763h159.38863v16.9763z" fill="url(#color-12)" stroke="#000000" stroke-width="2"/><path d="M101.30806,190.00474v-0.94313h259.36019v0.94313z" fill="url(#color-13)" stroke="#000000" stroke-width="2"/></g></g></svg>