<svg version="1.1" xmlns="http://www.w3.org/2000/svg" xmlns:xlink="http://www.w3.org/1999/xlink" width="556" height="398" viewBox="0,0,556,398"><g transform="translate(55.5,25.5)"><g data-paper-data="{&quot;isPaintingLayer&quot;:true}" fill="#fb6464" fill-rule="nonzero" stroke="none" stroke-width="0" stroke-linecap="butt" stroke-linejoin="miter" stroke-miterlimit="10" stroke-dasharray="" stroke-dashoffset="0" style="mix-blend-mode: normal"><path d="M-9.5,27.5v-44h510v44z"/><path d="M-55.5,371.5v-397h73v397z"/><path d="M-53.5,372.5v-20h537v20z"/><path d="M89.5,111.5v-22h129v22z"/><path d="M186.5,102.5v-93h34v93z"/><path d="M91.5,198.5v-98h28v98z"/><path d="M92.5,320.5v-55h25v55z"/><path d="M111.5,311.5v-20h141v20z"/><path d="M240.5,365.5v-64h8v64z"/><path d="M112.5,194.5v-29h136v29z"/><path d="M338.5,128.5v-111h44v111z"/><path d="M463.5,356.5v-344h20v344z"/><path d="M308.5,289.5v-91h43v91z"/></g></g></svg>