<svg version="1.1" xmlns="http://www.w3.org/2000/svg" xmlns:xlink="http://www.w3.org/1999/xlink" width="556" height="398" viewBox="0,0,556,398"><g transform="translate(55.5,25.5)"><g data-paper-data="{&quot;isPaintingLayer&quot;:true}" fill="#fb6464" fill-rule="nonzero" stroke="none" stroke-width="0" stroke-linecap="butt" stroke-linejoin="miter" stroke-miterlimit="10" stroke-dasharray="" stroke-dashoffset="0" style="mix-blend-mode: normal"><path d="M-9.5,27.5v-44h510v44z"/><path d="M-55.5,371.5v-397h73v397z"/><path d="M-53.5,372.5v-20h537v20z"/><path d="M362.0782,130.38626v-117.6019h20.4218v117.6019z"/><path d="M463.5,356.5v-344h20v344z"/><path d="M54.15166,265.45498v-246.1564h18.86256v246.1564z"/><path d="M131.48815,359.76777v-267.84834h15.09005v267.84834z"/><path d="M226.74408,270.17062v-259.36019h16.9763v259.36019z"/><path d="M359.72512,358.82464v-129.20853h21.69194v129.20853z"/><path d="M235.23223,105.12322v-12.26066h58.47393v12.26066z"/><path d="M109.79621,40.04739v-17.91943h84.88152v17.91943z"/><path d="M32.45972,354.109v-16.9763h79.22275v16.9763z"/><path d="M178.64455,354.109v-14.14692h32.06635v14.14692z"/><path d="M238.06161,356.93839v-7.54502h38.66825v7.54502z"/><path d="M313.51185,354.109v-24.52133h6.6019v24.52133z"/><path d="M453.09479,339.01896v-97.14218h15.09005v97.14218z"/></g></g></svg>