<svg version="1.1" xmlns="http://www.w3.org/2000/svg" xmlns:xlink="http://www.w3.org/1999/xlink" width="555" height="398" viewBox="0,0,555,398"><g transform="translate(55.5,25.5)"><g data-paper-data="{&quot;isPaintingLayer&quot;:true}" fill="#fb6464" fill-rule="nonzero" stroke="none" stroke-width="0" stroke-linecap="butt" stroke-linejoin="miter" stroke-miterlimit="10" stroke-dasharray="" stroke-dashoffset="0" style="mix-blend-mode: normal"><path d="M-10.5,27.5v-44h510v44z"/><path d="M-55.5,371.5v-397h73v397z"/><path d="M-53.5,372.5v-20h537v20z"/><path d="M78.19668,128.5v-111h304.30332v111z"/><path d="M463.5,356.5v-344h20v344z"/><path d="M89.99052,188.11848v-82.99526h16.03318v82.99526z"/><path d="M80.55924,257.90995v-11.31754h287.65403v11.31754z"/><path d="M168.27014,246.59242v-24.52133h29.23697v24.52133z"/><path d="M261.63981,162.65403v-43.38389h61.30332v43.38389z"/><path d="M105.08057,355.05213v-23.5782h55.64455v23.5782z"/><path d="M216.36967,302.23697v-50.92891h39.61137v50.92891z"/><path d="M329.54502,353.16588v-36.78199h35.83886v36.78199z"/><path d="M447.43602,319.21327v-81.109h21.69194v81.109z"/></g></g></svg>