<svg version="1.1" xmlns="http://www.w3.org/2000/svg" xmlns:xlink="http://www.w3.org/1999/xlink" width="556" height="398" viewBox="0,0,556,398"><g transform="translate(55.5,25.5)"><g data-paper-data="{&quot;isPaintingLayer&quot;:true}" fill="#fb6464" fill-rule="nonzero" stroke="none" stroke-width="0" stroke-linecap="butt" stroke-linejoin="miter" stroke-miterlimit="10" stroke-dasharray="" stroke-dashoffset="0" style="mix-blend-mode: normal"><path d="M-9.5,27.5v-44h510v44z"/><path d="M-55.5,371.5v-397h73v397z"/><path d="M-53.5,372.5v-20h537v20z"/><path d="M373.39573,130.38626v-36.49289h9.10427v36.49289z"/><path d="M463.5,356.5v-344h20v344z"/><path d="M186.18957,103.23697v-7.54502h188.62559v7.54502z"/><path d="M189.96209,44.76303v-23.5782h6.6019v23.5782z"/><path d="M288.04739,98.52133v-14.14692h12.26066v14.14692z"/><path d="M243.72038,35.33175v-16.9763h82.99526v16.9763z"/><path d="M73.01422,284.31754v-102.80095h24.52133v102.80095z"/><path d="M10.76777,287.14692v-57.53081h17.91943v57.53081z"/><path d="M89.04739,258.85308v-20.74882h134.8673v20.74882z"/><path d="M301.25118,235.27488v-132.98104h20.74882v132.98104z"/><path d="M384.24645,325.15611v-35.17981h81.109v35.17981z"/></g></g></svg>